<?xml version="1.0" standalone="no"?>
<!-- Created by Polyform Puzzler (http://puzzler.sourceforge.net/) -->
<svg width="170.000" height="170.000"
     viewBox="0 0 170.000 170.000"
     xmlns="http://www.w3.org/2000/svg"
     xmlns:xlink="http://www.w3.org/1999/xlink">
<g transform="matrix(1,0,0,-1,0,43.301) translate(85.000,-42.500) rotate(-90)">
<polygon fill="black" stroke="white" stroke-width="1"
         points="10.000,28.868 10.000,34.641 15.000,37.528 15.000,37.528 20.000,34.641 20.000,28.868 25.000,25.981 30.000,28.868 30.000,34.641 35.000,37.528 40.000,34.641 45.000,37.528 50.000,34.641 50.000,28.868 55.000,25.981 55.000,20.207 50.000,17.321 45.000,20.207 45.000,25.981 40.000,28.868 35.000,25.981 35.000,20.207 30.000,17.321 25.000,20.207 20.000,17.321 15.000,20.207 15.000,25.981">
<desc>S06</desc>
</polygon>
</g>
</svg>
