<?xml version="1.0" standalone="no"?>
<!-- Created by Polyform Puzzler (http://puzzler.sourceforge.net/) -->
<svg width="180.000" height="180.000"
     viewBox="0 0 180.000 180.000"
     xmlns="http://www.w3.org/2000/svg"
     xmlns:xlink="http://www.w3.org/1999/xlink">
<g transform="matrix(1,0,0,-1,0,51.962) translate(90.000,-45.000) rotate(90)">
<polygon fill="black" stroke="white" stroke-width="1"
         points="10.000,37.528 10.000,43.301 15.000,46.188 15.000,46.188 20.000,43.301 20.000,37.528 25.000,34.641 30.000,37.528 35.000,34.641 40.000,37.528 40.000,43.301 45.000,46.188 50.000,43.301 50.000,37.528 45.000,34.641 45.000,28.868 50.000,25.981 50.000,20.207 45.000,17.321 40.000,20.207 40.000,25.981 35.000,28.868 30.000,25.981 25.000,28.868 20.000,25.981 15.000,28.868 15.000,34.641">
<desc>Y46</desc>
</polygon>
</g>
</svg>
