<?xml version="1.0" standalone="no"?>
<!-- Created by Polyform Puzzler (http://puzzler.sourceforge.net/) -->
<svg width="170.0" height="103.923048454" viewBox="0 0 170.0 103.923048454"
     xmlns="http://www.w3.org/2000/svg">
<g>
<polygon fill="green" stroke="white"
         stroke-width="1" stroke-linejoin="round"
         points="10.000,95.263 30.000,95.263 35.000,86.603 30.000,77.942 20.000,77.942" />
<polygon fill="palegreen" stroke="white"
         stroke-width="1" stroke-linejoin="round"
         points="30.000,95.263 50.000,95.263 55.000,86.603 50.000,77.942 45.000,86.603 40.000,77.942 30.000,77.942 35.000,86.603" />
<polygon fill="teal" stroke="white"
         stroke-width="1" stroke-linejoin="round"
         points="50.000,95.263 60.000,95.263 65.000,86.603 75.000,86.603 65.000,69.282 55.000,69.282 60.000,77.942" />
<polygon fill="blue" stroke="white"
         stroke-width="1" stroke-linejoin="round"
         points="60.000,95.263 100.000,95.263 95.000,86.603 65.000,86.603" />
<polygon fill="navy" stroke="white"
         stroke-width="1" stroke-linejoin="round"
         points="95.000,86.603 100.000,95.263 110.000,95.263 115.000,86.603 110.000,77.942 115.000,69.282 105.000,69.282 100.000,77.942 105.000,86.603" />
<polygon fill="darkseagreen" stroke="white"
         stroke-width="1" stroke-linejoin="round"
         points="40.000,77.942 45.000,86.603 50.000,77.942 55.000,86.603 60.000,77.942 55.000,69.282 35.000,69.282 30.000,77.942" />
<polygon fill="tan" stroke="white"
         stroke-width="1" stroke-linejoin="round"
         points="70.000,77.942 75.000,86.603 95.000,86.603 90.000,77.942 80.000,77.942 85.000,69.282 65.000,69.282" />
<polygon fill="blueviolet" stroke="white"
         stroke-width="1" stroke-linejoin="round"
         points="90.000,77.942 95.000,86.603 105.000,86.603 100.000,77.942 105.000,69.282 100.000,60.622 95.000,69.282 85.000,69.282 80.000,77.942" />
<polygon fill="gold" stroke="white"
         stroke-width="1" stroke-linejoin="round"
         points="110.000,77.942 115.000,86.603 125.000,69.282 120.000,60.622 100.000,60.622 105.000,69.282 115.000,69.282" />
<polygon fill="turquoise" stroke="white"
         stroke-width="1" stroke-linejoin="round"
         points="20.000,77.942 30.000,77.942 35.000,69.282 45.000,69.282 50.000,60.622 40.000,60.622 35.000,51.962" />
<polygon fill="orangered" stroke="white"
         stroke-width="1" stroke-linejoin="round"
         points="45.000,69.282 55.000,69.282 65.000,51.962 55.000,51.962 60.000,43.301 50.000,43.301 45.000,51.962 50.000,60.622" />
<polygon fill="magenta" stroke="white"
         stroke-width="1" stroke-linejoin="round"
         points="120.000,60.622 125.000,69.282 135.000,51.962 105.000,51.962 100.000,60.622" />
<polygon fill="steelblue" stroke="white"
         stroke-width="1" stroke-linejoin="round"
         points="35.000,51.962 40.000,60.622 50.000,60.622 45.000,51.962 55.000,34.641 50.000,25.981" />
<polygon fill="plum" stroke="white"
         stroke-width="1" stroke-linejoin="round"
         points="55.000,51.962 65.000,51.962 75.000,34.641 65.000,34.641 60.000,25.981 50.000,43.301 60.000,43.301" />
<polygon fill="red" stroke="white"
         stroke-width="1" stroke-linejoin="round"
         points="105.000,51.962 125.000,51.962 120.000,43.301 130.000,43.301 120.000,25.981" />
<polygon fill="yellowgreen" stroke="white"
         stroke-width="1" stroke-linejoin="round"
         points="120.000,43.301 125.000,51.962 135.000,51.962 140.000,43.301 130.000,25.981 120.000,25.981 130.000,43.301" />
<polygon fill="maroon" stroke="white"
         stroke-width="1" stroke-linejoin="round"
         points="135.000,34.641 140.000,43.301 155.000,17.321 145.000,17.321 140.000,25.981 135.000,17.321 130.000,25.981" />
<polygon fill="olive" stroke="white"
         stroke-width="1" stroke-linejoin="round"
         points="50.000,25.981 55.000,34.641 65.000,17.321 75.000,17.321 80.000,8.660 60.000,8.660" />
<polygon fill="lime" stroke="white"
         stroke-width="1" stroke-linejoin="round"
         points="60.000,25.981 65.000,34.641 85.000,34.641 90.000,25.981 85.000,17.321 80.000,25.981 70.000,25.981 65.000,17.321" />
<polygon fill="indigo" stroke="white"
         stroke-width="1" stroke-linejoin="round"
         points="85.000,34.641 105.000,34.641 100.000,25.981 105.000,17.321 100.000,8.660 95.000,17.321 85.000,17.321 90.000,25.981" />
<polygon fill="lightcoral" stroke="white"
         stroke-width="1" stroke-linejoin="round"
         points="100.000,25.981 105.000,34.641 115.000,34.641 110.000,25.981 120.000,8.660 100.000,8.660 105.000,17.321" />
<polygon fill="yellow" stroke="white"
         stroke-width="1" stroke-linejoin="round"
         points="110.000,25.981 115.000,34.641 120.000,25.981 130.000,25.981 135.000,17.321 125.000,17.321 130.000,8.660 120.000,8.660" />
<polygon fill="silver" stroke="white"
         stroke-width="1" stroke-linejoin="round"
         points="65.000,17.321 70.000,25.981 80.000,25.981 85.000,17.321 95.000,17.321 100.000,8.660 80.000,8.660 75.000,17.321" />
<polygon fill="darkorange" stroke="white"
         stroke-width="1" stroke-linejoin="round"
         points="135.000,17.321 140.000,25.981 145.000,17.321 155.000,17.321 160.000,8.660 130.000,8.660 125.000,17.321" />
</g>
</svg>
