<?xml version="1.0" standalone="no"?>
<!-- Created by Polyform Puzzler (http://puzzler.sourceforge.net/) -->
<svg width="425.000" height="251.147"
     viewBox="0 0 425.000 251.147"
     xmlns="http://www.w3.org/2000/svg"
     xmlns:xlink="http://www.w3.org/1999/xlink">
<g>
<polygon fill="lime" stroke="white" stroke-width="1"
         points="140.000,236.714 140.000,242.487 145.000,245.374 145.000,245.374 150.000,242.487 155.000,245.374 160.000,242.487 160.000,236.714 165.000,233.827 165.000,228.053 160.000,225.167 160.000,219.393 165.000,216.506 165.000,210.733 160.000,207.846 155.000,210.733 155.000,216.506 150.000,219.393 150.000,225.167 145.000,228.053 145.000,233.827">
<desc>P06</desc>
</polygon>
<polygon fill="steelblue" stroke="white" stroke-width="1"
         points="160.000,236.714 160.000,242.487 165.000,245.374 165.000,245.374 170.000,242.487 175.000,245.374 180.000,242.487 185.000,245.374 190.000,242.487 190.000,236.714 195.000,233.827 195.000,228.053 190.000,225.167 185.000,228.053 180.000,225.167 180.000,219.393 175.000,216.506 170.000,219.393 170.000,225.167 175.000,228.053 175.000,233.827 170.000,236.714 165.000,233.827">
<desc>A16</desc>
</polygon>
<polygon fill="lime" stroke="white" stroke-width="1"
         points="190.000,236.714 190.000,242.487 195.000,245.374 195.000,245.374 200.000,242.487 205.000,245.374 210.000,242.487 215.000,245.374 220.000,242.487 220.000,236.714 215.000,233.827 215.000,228.053 220.000,225.167 220.000,219.393 215.000,216.506 210.000,219.393 205.000,216.506 200.000,219.393 200.000,225.167 205.000,228.053 205.000,233.827 200.000,236.714 195.000,233.827">
<desc>A26</desc>
</polygon>
<polygon fill="green" stroke="white" stroke-width="1"
         points="220.000,236.714 220.000,242.487 225.000,245.374 225.000,245.374 230.000,242.487 235.000,245.374 240.000,242.487 240.000,236.714 245.000,233.827 245.000,228.053 240.000,225.167 240.000,219.393 235.000,216.506 230.000,219.393 230.000,225.167 225.000,228.053 220.000,225.167 215.000,228.053 215.000,233.827">
<desc>C06</desc>
</polygon>
<polygon fill="blue" stroke="white" stroke-width="1"
         points="240.000,236.714 240.000,242.487 245.000,245.374 245.000,245.374 250.000,242.487 255.000,245.374 260.000,242.487 260.000,236.714 255.000,233.827 255.000,228.053 260.000,225.167 265.000,228.053 265.000,233.827 270.000,236.714 275.000,233.827 275.000,228.053 270.000,225.167 270.000,219.393 265.000,216.506 260.000,219.393 255.000,216.506 250.000,219.393 250.000,225.167 245.000,228.053 245.000,233.827">
<desc>C36</desc>
</polygon>
<polygon fill="peru" stroke="white" stroke-width="1"
         points="260.000,236.714 260.000,242.487 265.000,245.374 265.000,245.374 270.000,242.487 275.000,245.374 280.000,242.487 280.000,236.714 285.000,233.827 285.000,228.053 280.000,225.167 280.000,219.393 285.000,216.506 285.000,210.733 280.000,207.846 275.000,210.733 275.000,216.506 270.000,219.393 270.000,225.167 275.000,228.053 275.000,233.827 270.000,236.714 265.000,233.827 265.000,228.053 260.000,225.167 255.000,228.053 255.000,233.827">
<desc>C76</desc>
</polygon>
<polygon fill="maroon" stroke="white" stroke-width="1"
         points="135.000,228.053 135.000,233.827 140.000,236.714 140.000,236.714 145.000,233.827 145.000,228.053 150.000,225.167 150.000,219.393 155.000,216.506 155.000,210.733 150.000,207.846 145.000,210.733 140.000,207.846 135.000,210.733 130.000,207.846 125.000,210.733 125.000,216.506 130.000,219.393 130.000,225.167">
<desc>A06</desc>
</polygon>
<polygon fill="magenta" stroke="white" stroke-width="1"
         points="165.000,228.053 165.000,233.827 170.000,236.714 170.000,236.714 175.000,233.827 175.000,228.053 170.000,225.167 170.000,219.393 175.000,216.506 175.000,210.733 180.000,207.846 180.000,202.073 185.000,199.186 190.000,202.073 195.000,199.186 195.000,193.412 190.000,190.526 185.000,193.412 180.000,190.526 175.000,193.412 175.000,199.186 170.000,202.073 170.000,207.846 165.000,210.733 165.000,216.506 160.000,219.393 160.000,225.167">
<desc>C16</desc>
</polygon>
<polygon fill="indigo" stroke="white" stroke-width="1"
         points="195.000,228.053 195.000,233.827 200.000,236.714 200.000,236.714 205.000,233.827 205.000,228.053 200.000,225.167 200.000,219.393 205.000,216.506 210.000,219.393 215.000,216.506 220.000,219.393 220.000,225.167 225.000,228.053 230.000,225.167 230.000,219.393 225.000,216.506 225.000,210.733 220.000,207.846 215.000,210.733 210.000,207.846 205.000,210.733 200.000,207.846 195.000,210.733 195.000,216.506 190.000,219.393 190.000,225.167">
<desc>C26</desc>
</polygon>
<polygon fill="steelblue" stroke="white" stroke-width="1"
         points="180.000,219.393 180.000,225.167 185.000,228.053 185.000,228.053 190.000,225.167 190.000,219.393 195.000,216.506 195.000,210.733 200.000,207.846 205.000,210.733 210.000,207.846 210.000,202.073 205.000,199.186 200.000,202.073 195.000,199.186 190.000,202.073 185.000,199.186 180.000,202.073 180.000,207.846 175.000,210.733 175.000,216.506">
<desc>W26</desc>
</polygon>
<polygon fill="navy" stroke="white" stroke-width="1"
         points="240.000,219.393 240.000,225.167 245.000,228.053 245.000,228.053 250.000,225.167 250.000,219.393 255.000,216.506 260.000,219.393 265.000,216.506 265.000,210.733 270.000,207.846 270.000,202.073 265.000,199.186 260.000,202.073 255.000,199.186 250.000,202.073 245.000,199.186 240.000,202.073 240.000,207.846 245.000,210.733 245.000,216.506">
<desc>M26</desc>
</polygon>
<polygon fill="darkseagreen" stroke="white" stroke-width="1"
         points="280.000,219.393 280.000,225.167 285.000,228.053 285.000,228.053 290.000,225.167 290.000,219.393 295.000,216.506 295.000,210.733 290.000,207.846 290.000,202.073 285.000,199.186 285.000,193.412 280.000,190.526 275.000,193.412 275.000,199.186 270.000,202.073 270.000,207.846 265.000,210.733 265.000,216.506 270.000,219.393 275.000,216.506 275.000,210.733 280.000,207.846 285.000,210.733 285.000,216.506">
<desc>C46</desc>
</polygon>
<polygon fill="olive" stroke="white" stroke-width="1"
         points="225.000,210.733 225.000,216.506 230.000,219.393 230.000,219.393 235.000,216.506 235.000,210.733 230.000,207.846 230.000,202.073 225.000,199.186 220.000,202.073 215.000,199.186 215.000,193.412 210.000,190.526 210.000,184.752 205.000,181.865 200.000,184.752 200.000,190.526 195.000,193.412 195.000,199.186 200.000,202.073 205.000,199.186 210.000,202.073 210.000,207.846 215.000,210.733 220.000,207.846">
<desc>M06</desc>
</polygon>
<polygon fill="steelblue" stroke="white" stroke-width="1"
         points="235.000,210.733 235.000,216.506 240.000,219.393 240.000,219.393 245.000,216.506 245.000,210.733 240.000,207.846 240.000,202.073 245.000,199.186 250.000,202.073 255.000,199.186 260.000,202.073 265.000,199.186 270.000,202.073 275.000,199.186 275.000,193.412 270.000,190.526 265.000,193.412 260.000,190.526 255.000,193.412 250.000,190.526 245.000,193.412 240.000,190.526 235.000,193.412 235.000,199.186 230.000,202.073 230.000,207.846">
<desc>J06</desc>
</polygon>
<polygon fill="magenta" stroke="white" stroke-width="1"
         points="120.000,202.073 120.000,207.846 125.000,210.733 125.000,210.733 130.000,207.846 130.000,202.073 135.000,199.186 135.000,193.412 130.000,190.526 125.000,193.412 120.000,190.526 120.000,184.752 115.000,181.865 115.000,176.092 110.000,173.205 110.000,167.432 105.000,164.545 100.000,167.432 100.000,173.205 105.000,176.092 105.000,181.865 110.000,184.752 110.000,190.526 115.000,193.412 115.000,199.186">
<desc>P26</desc>
</polygon>
<polygon fill="green" stroke="white" stroke-width="1"
         points="130.000,202.073 130.000,207.846 135.000,210.733 135.000,210.733 140.000,207.846 140.000,202.073 145.000,199.186 145.000,193.412 140.000,190.526 140.000,184.752 135.000,181.865 130.000,184.752 125.000,181.865 125.000,176.092 120.000,173.205 120.000,167.432 115.000,164.545 110.000,167.432 110.000,173.205 115.000,176.092 115.000,181.865 120.000,184.752 120.000,190.526 125.000,193.412 130.000,190.526 135.000,193.412 135.000,199.186">
<desc>P16</desc>
</polygon>
<polygon fill="indigo" stroke="white" stroke-width="1"
         points="140.000,202.073 140.000,207.846 145.000,210.733 145.000,210.733 150.000,207.846 155.000,210.733 160.000,207.846 165.000,210.733 170.000,207.846 170.000,202.073 175.000,199.186 175.000,193.412 170.000,190.526 165.000,193.412 165.000,199.186 160.000,202.073 155.000,199.186 155.000,193.412 150.000,190.526 150.000,184.752 145.000,181.865 140.000,184.752 140.000,190.526 145.000,193.412 145.000,199.186">
<desc>J46</desc>
</polygon>
<polygon fill="darkorange" stroke="white" stroke-width="1"
         points="290.000,202.073 290.000,207.846 295.000,210.733 295.000,210.733 300.000,207.846 300.000,202.073 305.000,199.186 305.000,193.412 310.000,190.526 310.000,184.752 315.000,181.865 315.000,176.092 310.000,173.205 310.000,167.432 305.000,164.545 300.000,167.432 300.000,173.205 305.000,176.092 305.000,181.865 300.000,184.752 300.000,190.526 295.000,193.412 290.000,190.526 285.000,193.412 285.000,199.186">
<desc>C56</desc>
</polygon>
<polygon fill="olive" stroke="white" stroke-width="1"
         points="155.000,193.412 155.000,199.186 160.000,202.073 160.000,202.073 165.000,199.186 165.000,193.412 160.000,190.526 160.000,184.752 155.000,181.865 155.000,176.092 150.000,173.205 145.000,176.092 140.000,173.205 140.000,167.432 135.000,164.545 130.000,167.432 130.000,173.205 125.000,176.092 125.000,181.865 130.000,184.752 135.000,181.865 140.000,184.752 145.000,181.865 150.000,184.752 150.000,190.526">
<desc>Q16</desc>
</polygon>
<polygon fill="lime" stroke="white" stroke-width="1"
         points="215.000,193.412 215.000,199.186 220.000,202.073 220.000,202.073 225.000,199.186 230.000,202.073 235.000,199.186 235.000,193.412 240.000,190.526 240.000,184.752 235.000,181.865 230.000,184.752 230.000,190.526 225.000,193.412 220.000,190.526 220.000,184.752 225.000,181.865 225.000,176.092 230.000,173.205 230.000,167.432 225.000,164.545 220.000,167.432 220.000,173.205 215.000,176.092 215.000,181.865 210.000,184.752 210.000,190.526">
<desc>J16</desc>
</polygon>
<polygon fill="maroon" stroke="white" stroke-width="1"
         points="160.000,184.752 160.000,190.526 165.000,193.412 165.000,193.412 170.000,190.526 175.000,193.412 180.000,190.526 185.000,193.412 190.000,190.526 195.000,193.412 200.000,190.526 200.000,184.752 205.000,181.865 210.000,184.752 215.000,181.865 215.000,176.092 210.000,173.205 205.000,176.092 200.000,173.205 195.000,176.092 195.000,181.865 190.000,184.752 185.000,181.865 180.000,184.752 175.000,181.865 170.000,184.752 165.000,181.865">
<desc>N16</desc>
</polygon>
<polygon fill="navy" stroke="white" stroke-width="1"
         points="220.000,184.752 220.000,190.526 225.000,193.412 225.000,193.412 230.000,190.526 230.000,184.752 235.000,181.865 240.000,184.752 245.000,181.865 250.000,184.752 255.000,181.865 260.000,184.752 265.000,181.865 265.000,176.092 260.000,173.205 255.000,176.092 250.000,173.205 250.000,167.432 245.000,164.545 240.000,167.432 240.000,173.205 235.000,176.092 230.000,173.205 225.000,176.092 225.000,181.865">
<desc>F16</desc>
</polygon>
<polygon fill="maroon" stroke="white" stroke-width="1"
         points="240.000,184.752 240.000,190.526 245.000,193.412 245.000,193.412 250.000,190.526 255.000,193.412 260.000,190.526 265.000,193.412 270.000,190.526 275.000,193.412 280.000,190.526 285.000,193.412 290.000,190.526 295.000,193.412 300.000,190.526 300.000,184.752 295.000,181.865 290.000,184.752 285.000,181.865 280.000,184.752 275.000,181.865 270.000,184.752 265.000,181.865 260.000,184.752 255.000,181.865 250.000,184.752 245.000,181.865">
<desc>I06</desc>
</polygon>
<polygon fill="teal" stroke="white" stroke-width="1"
         points="155.000,176.092 155.000,181.865 160.000,184.752 160.000,184.752 165.000,181.865 165.000,176.092 160.000,173.205 160.000,167.432 155.000,164.545 150.000,167.432 145.000,164.545 145.000,158.771 150.000,155.885 150.000,150.111 145.000,147.224 140.000,150.111 140.000,155.885 135.000,158.771 130.000,155.885 125.000,158.771 125.000,164.545 130.000,167.432 135.000,164.545 140.000,167.432 140.000,173.205 145.000,176.092 150.000,173.205">
<desc>M16</desc>
</polygon>
<polygon fill="olive" stroke="white" stroke-width="1"
         points="165.000,176.092 165.000,181.865 170.000,184.752 170.000,184.752 175.000,181.865 180.000,184.752 185.000,181.865 190.000,184.752 195.000,181.865 195.000,176.092 190.000,173.205 185.000,176.092 180.000,173.205 180.000,167.432 175.000,164.545 170.000,167.432 165.000,164.545 165.000,158.771 160.000,155.885 155.000,158.771 155.000,164.545 160.000,167.432 160.000,173.205">
<desc>E06</desc>
</polygon>
<polygon fill="blueviolet" stroke="white" stroke-width="1"
         points="265.000,176.092 265.000,181.865 270.000,184.752 270.000,184.752 275.000,181.865 280.000,184.752 285.000,181.865 290.000,184.752 295.000,181.865 300.000,184.752 305.000,181.865 305.000,176.092 300.000,173.205 300.000,167.432 305.000,164.545 305.000,158.771 300.000,155.885 295.000,158.771 295.000,164.545 290.000,167.432 290.000,173.205 285.000,176.092 280.000,173.205 275.000,176.092 270.000,173.205">
<desc>H06</desc>
</polygon>
<polygon fill="blue" stroke="white" stroke-width="1"
         points="120.000,167.432 120.000,173.205 125.000,176.092 125.000,176.092 130.000,173.205 130.000,167.432 125.000,164.545 125.000,158.771 130.000,155.885 130.000,150.111 125.000,147.224 120.000,150.111 120.000,155.885 115.000,158.771 110.000,155.885 110.000,150.111 105.000,147.224 100.000,150.111 100.000,155.885 95.000,158.771 95.000,164.545 100.000,167.432 105.000,164.545 110.000,167.432 115.000,164.545">
<desc>K06</desc>
</polygon>
<polygon fill="darkseagreen" stroke="white" stroke-width="1"
         points="180.000,167.432 180.000,173.205 185.000,176.092 185.000,176.092 190.000,173.205 195.000,176.092 200.000,173.205 205.000,176.092 210.000,173.205 215.000,176.092 220.000,173.205 220.000,167.432 215.000,164.545 210.000,167.432 205.000,164.545 200.000,167.432 195.000,164.545 190.000,167.432 185.000,164.545 185.000,158.771 180.000,155.885 180.000,150.111 175.000,147.224 170.000,150.111 170.000,155.885 175.000,158.771 175.000,164.545">
<desc>L06</desc>
</polygon>
<polygon fill="turquoise" stroke="white" stroke-width="1"
         points="230.000,167.432 230.000,173.205 235.000,176.092 235.000,176.092 240.000,173.205 240.000,167.432 245.000,164.545 250.000,167.432 255.000,164.545 260.000,167.432 265.000,164.545 265.000,158.771 260.000,155.885 260.000,150.111 265.000,147.224 265.000,141.451 260.000,138.564 255.000,141.451 255.000,147.224 250.000,150.111 250.000,155.885 245.000,158.771 240.000,155.885 235.000,158.771 235.000,164.545">
<desc>H26</desc>
</polygon>
<polygon fill="teal" stroke="white" stroke-width="1"
         points="250.000,167.432 250.000,173.205 255.000,176.092 255.000,176.092 260.000,173.205 265.000,176.092 270.000,173.205 275.000,176.092 280.000,173.205 285.000,176.092 290.000,173.205 290.000,167.432 295.000,164.545 295.000,158.771 290.000,155.885 285.000,158.771 285.000,164.545 280.000,167.432 275.000,164.545 275.000,158.771 270.000,155.885 265.000,158.771 265.000,164.545 260.000,167.432 255.000,164.545">
<desc>F06</desc>
</polygon>
<polygon fill="plum" stroke="white" stroke-width="1"
         points="310.000,167.432 310.000,173.205 315.000,176.092 315.000,176.092 320.000,173.205 320.000,167.432 315.000,164.545 315.000,158.771 310.000,155.885 310.000,150.111 305.000,147.224 300.000,150.111 295.000,147.224 290.000,150.111 285.000,147.224 280.000,150.111 280.000,155.885 275.000,158.771 275.000,164.545 280.000,167.432 285.000,164.545 285.000,158.771 290.000,155.885 295.000,158.771 300.000,155.885 305.000,158.771 305.000,164.545">
<desc>C66</desc>
</polygon>
<polygon fill="red" stroke="white" stroke-width="1"
         points="145.000,158.771 145.000,164.545 150.000,167.432 150.000,167.432 155.000,164.545 155.000,158.771 160.000,155.885 165.000,158.771 165.000,164.545 170.000,167.432 175.000,164.545 175.000,158.771 170.000,155.885 170.000,150.111 165.000,147.224 160.000,150.111 155.000,147.224 155.000,141.451 150.000,138.564 150.000,132.791 145.000,129.904 140.000,132.791 140.000,138.564 145.000,141.451 145.000,147.224 150.000,150.111 150.000,155.885">
<desc>H16</desc>
</polygon>
<polygon fill="navy" stroke="white" stroke-width="1"
         points="315.000,158.771 315.000,164.545 320.000,167.432 320.000,167.432 325.000,164.545 325.000,158.771 330.000,155.885 330.000,150.111 325.000,147.224 325.000,141.451 330.000,138.564 330.000,132.791 325.000,129.904 325.000,124.130 320.000,121.244 315.000,124.130 315.000,129.904 310.000,132.791 310.000,138.564 315.000,141.451 315.000,147.224 320.000,150.111 320.000,155.885">
<desc>Q36</desc>
</polygon>
<polygon fill="teal" stroke="white" stroke-width="1"
         points="90.000,150.111 90.000,155.885 95.000,158.771 95.000,158.771 100.000,155.885 100.000,150.111 105.000,147.224 105.000,141.451 100.000,138.564 95.000,141.451 90.000,138.564 90.000,132.791 95.000,129.904 95.000,124.130 90.000,121.244 85.000,124.130 80.000,121.244 75.000,124.130 75.000,129.904 80.000,132.791 80.000,138.564 85.000,141.451 85.000,147.224">
<desc>U16</desc>
</polygon>
<polygon fill="darkorange" stroke="white" stroke-width="1"
         points="110.000,150.111 110.000,155.885 115.000,158.771 115.000,158.771 120.000,155.885 120.000,150.111 115.000,147.224 115.000,141.451 110.000,138.564 110.000,132.791 105.000,129.904 105.000,124.130 100.000,121.244 100.000,115.470 95.000,112.583 90.000,115.470 90.000,121.244 95.000,124.130 95.000,129.904 90.000,132.791 90.000,138.564 95.000,141.451 100.000,138.564 105.000,141.451 105.000,147.224">
<desc>P66</desc>
</polygon>
<polygon fill="darkorange" stroke="white" stroke-width="1"
         points="130.000,150.111 130.000,155.885 135.000,158.771 135.000,158.771 140.000,155.885 140.000,150.111 145.000,147.224 145.000,141.451 140.000,138.564 135.000,141.451 130.000,138.564 130.000,132.791 125.000,129.904 120.000,132.791 115.000,129.904 110.000,132.791 110.000,138.564 115.000,141.451 115.000,147.224 120.000,150.111 125.000,147.224">
<desc>T56</desc>
</polygon>
<polygon fill="green" stroke="white" stroke-width="1"
         points="240.000,150.111 240.000,155.885 245.000,158.771 245.000,158.771 250.000,155.885 250.000,150.111 255.000,147.224 255.000,141.451 260.000,138.564 265.000,141.451 265.000,147.224 270.000,150.111 275.000,147.224 275.000,141.451 280.000,138.564 280.000,132.791 275.000,129.904 270.000,132.791 265.000,129.904 260.000,132.791 255.000,129.904 250.000,132.791 250.000,138.564 245.000,141.451 245.000,147.224">
<desc>J26</desc>
</polygon>
<polygon fill="darkorange" stroke="white" stroke-width="1"
         points="260.000,150.111 260.000,155.885 265.000,158.771 265.000,158.771 270.000,155.885 275.000,158.771 280.000,155.885 280.000,150.111 285.000,147.224 285.000,141.451 290.000,138.564 290.000,132.791 295.000,129.904 295.000,124.130 300.000,121.244 300.000,115.470 295.000,112.583 290.000,115.470 290.000,121.244 285.000,124.130 285.000,129.904 280.000,132.791 280.000,138.564 275.000,141.451 275.000,147.224 270.000,150.111 265.000,147.224">
<desc>L16</desc>
</polygon>
<polygon fill="lime" stroke="white" stroke-width="1"
         points="310.000,150.111 310.000,155.885 315.000,158.771 315.000,158.771 320.000,155.885 320.000,150.111 315.000,147.224 315.000,141.451 310.000,138.564 310.000,132.791 315.000,129.904 315.000,124.130 320.000,121.244 320.000,115.470 315.000,112.583 315.000,106.810 310.000,103.923 305.000,106.810 305.000,112.583 310.000,115.470 310.000,121.244 305.000,124.130 305.000,129.904 300.000,132.791 300.000,138.564 305.000,141.451 305.000,147.224">
<desc>S36</desc>
</polygon>
<polygon fill="magenta" stroke="white" stroke-width="1"
         points="155.000,141.451 155.000,147.224 160.000,150.111 160.000,150.111 165.000,147.224 170.000,150.111 175.000,147.224 175.000,141.451 170.000,138.564 165.000,141.451 160.000,138.564 160.000,132.791 155.000,129.904 155.000,124.130 150.000,121.244 145.000,124.130 140.000,121.244 135.000,124.130 135.000,129.904 130.000,132.791 130.000,138.564 135.000,141.451 140.000,138.564 140.000,132.791 145.000,129.904 150.000,132.791 150.000,138.564">
<desc>J36</desc>
</polygon>
<polygon fill="peru" stroke="white" stroke-width="1"
         points="285.000,141.451 285.000,147.224 290.000,150.111 290.000,150.111 295.000,147.224 300.000,150.111 305.000,147.224 305.000,141.451 300.000,138.564 300.000,132.791 305.000,129.904 305.000,124.130 310.000,121.244 310.000,115.470 305.000,112.583 305.000,106.810 300.000,103.923 295.000,106.810 295.000,112.583 300.000,115.470 300.000,121.244 295.000,124.130 295.000,129.904 290.000,132.791 290.000,138.564">
<desc>Q06</desc>
</polygon>
<polygon fill="darkseagreen" stroke="white" stroke-width="1"
         points="325.000,141.451 325.000,147.224 330.000,150.111 330.000,150.111 335.000,147.224 335.000,141.451 340.000,138.564 340.000,132.791 345.000,129.904 345.000,124.130 340.000,121.244 335.000,124.130 330.000,121.244 330.000,115.470 325.000,112.583 325.000,106.810 320.000,103.923 315.000,106.810 315.000,112.583 320.000,115.470 320.000,121.244 325.000,124.130 325.000,129.904 330.000,132.791 330.000,138.564">
<desc>T46</desc>
</polygon>
<polygon fill="plum" stroke="white" stroke-width="1"
         points="160.000,132.791 160.000,138.564 165.000,141.451 165.000,141.451 170.000,138.564 170.000,132.791 165.000,129.904 165.000,124.130 170.000,121.244 170.000,115.470 165.000,112.583 165.000,106.810 160.000,103.923 155.000,106.810 150.000,103.923 145.000,106.810 140.000,103.923 135.000,106.810 135.000,112.583 140.000,115.470 145.000,112.583 150.000,115.470 155.000,112.583 160.000,115.470 160.000,121.244 155.000,124.130 155.000,129.904">
<desc>L26</desc>
</polygon>
<polygon fill="steelblue" stroke="white" stroke-width="1"
         points="200.000,132.791 200.000,138.564 205.000,141.451 205.000,141.451 210.000,138.564 215.000,141.451 220.000,138.564 220.000,132.791 225.000,129.904 225.000,124.130 220.000,121.244 220.000,115.470 215.000,112.583 210.000,115.470 205.000,112.583 200.000,115.470 200.000,121.244 195.000,124.130 195.000,129.904">
<desc>O06</desc>
</polygon>
<polygon fill="turquoise" stroke="white" stroke-width="1"
         points="105.000,124.130 105.000,129.904 110.000,132.791 110.000,132.791 115.000,129.904 120.000,132.791 125.000,129.904 130.000,132.791 135.000,129.904 135.000,124.130 140.000,121.244 145.000,124.130 150.000,121.244 155.000,124.130 160.000,121.244 160.000,115.470 155.000,112.583 150.000,115.470 145.000,112.583 140.000,115.470 135.000,112.583 130.000,115.470 130.000,121.244 125.000,124.130 120.000,121.244 115.000,124.130 110.000,121.244">
<desc>N06</desc>
</polygon>
<polygon fill="blue" stroke="white" stroke-width="1"
         points="255.000,124.130 255.000,129.904 260.000,132.791 260.000,132.791 265.000,129.904 270.000,132.791 275.000,129.904 280.000,132.791 285.000,129.904 285.000,124.130 290.000,121.244 290.000,115.470 285.000,112.583 280.000,115.470 275.000,112.583 270.000,115.470 270.000,121.244 265.000,124.130 260.000,121.244 260.000,115.470 255.000,112.583 250.000,115.470 250.000,121.244">
<desc>T36</desc>
</polygon>
<polygon fill="red" stroke="white" stroke-width="1"
         points="80.000,115.470 80.000,121.244 85.000,124.130 85.000,124.130 90.000,121.244 90.000,115.470 95.000,112.583 100.000,115.470 105.000,112.583 105.000,106.810 110.000,103.923 115.000,106.810 120.000,103.923 120.000,98.150 125.000,95.263 125.000,89.489 120.000,86.603 115.000,89.489 115.000,95.263 110.000,98.150 105.000,95.263 100.000,98.150 100.000,103.923 95.000,106.810 90.000,103.923 85.000,106.810 85.000,112.583">
<desc>M46</desc>
</polygon>
<polygon fill="blueviolet" stroke="white" stroke-width="1"
         points="100.000,115.470 100.000,121.244 105.000,124.130 105.000,124.130 110.000,121.244 115.000,124.130 120.000,121.244 125.000,124.130 130.000,121.244 130.000,115.470 135.000,112.583 135.000,106.810 130.000,103.923 125.000,106.810 120.000,103.923 115.000,106.810 110.000,103.923 105.000,106.810 105.000,112.583">
<desc>M36</desc>
</polygon>
<polygon fill="navy" stroke="white" stroke-width="1"
         points="260.000,115.470 260.000,121.244 265.000,124.130 265.000,124.130 270.000,121.244 270.000,115.470 275.000,112.583 280.000,115.470 285.000,112.583 290.000,115.470 295.000,112.583 295.000,106.810 290.000,103.923 290.000,98.150 285.000,95.263 280.000,98.150 280.000,103.923 275.000,106.810 270.000,103.923 265.000,106.810 260.000,103.923 255.000,106.810 255.000,112.583">
<desc>Z06</desc>
</polygon>
<polygon fill="maroon" stroke="white" stroke-width="1"
         points="330.000,115.470 330.000,121.244 335.000,124.130 335.000,124.130 340.000,121.244 340.000,115.470 335.000,112.583 335.000,106.810 330.000,103.923 330.000,98.150 325.000,95.263 320.000,98.150 315.000,95.263 315.000,89.489 310.000,86.603 305.000,89.489 300.000,86.603 295.000,89.489 295.000,95.263 300.000,98.150 305.000,95.263 310.000,98.150 310.000,103.923 315.000,106.810 320.000,103.923 325.000,106.810 325.000,112.583">
<desc>W16</desc>
</polygon>
<polygon fill="magenta" stroke="white" stroke-width="1"
         points="165.000,106.810 165.000,112.583 170.000,115.470 170.000,115.470 175.000,112.583 175.000,106.810 180.000,103.923 180.000,98.150 175.000,95.263 175.000,89.489 170.000,86.603 165.000,89.489 165.000,95.263 160.000,98.150 155.000,95.263 150.000,98.150 145.000,95.263 140.000,98.150 140.000,103.923 145.000,106.810 150.000,103.923 155.000,106.810 160.000,103.923">
<desc>T16</desc>
</polygon>
<polygon fill="plum" stroke="white" stroke-width="1"
         points="245.000,106.810 245.000,112.583 250.000,115.470 250.000,115.470 255.000,112.583 255.000,106.810 260.000,103.923 260.000,98.150 265.000,95.263 265.000,89.489 270.000,86.603 270.000,80.829 265.000,77.942 260.000,80.829 260.000,86.603 255.000,89.489 250.000,86.603 250.000,80.829 245.000,77.942 240.000,80.829 240.000,86.603 245.000,89.489 245.000,95.263 250.000,98.150 250.000,103.923">
<desc>Y36</desc>
</polygon>
<polygon fill="steelblue" stroke="white" stroke-width="1"
         points="90.000,98.150 90.000,103.923 95.000,106.810 95.000,106.810 100.000,103.923 100.000,98.150 105.000,95.263 110.000,98.150 115.000,95.263 115.000,89.489 120.000,86.603 120.000,80.829 125.000,77.942 125.000,72.169 120.000,69.282 115.000,72.169 115.000,77.942 110.000,80.829 105.000,77.942 100.000,80.829 100.000,86.603 95.000,89.489 95.000,95.263">
<desc>S26</desc>
</polygon>
<polygon fill="darkseagreen" stroke="white" stroke-width="1"
         points="120.000,98.150 120.000,103.923 125.000,106.810 125.000,106.810 130.000,103.923 135.000,106.810 140.000,103.923 140.000,98.150 145.000,95.263 150.000,98.150 155.000,95.263 160.000,98.150 165.000,95.263 165.000,89.489 160.000,86.603 155.000,89.489 150.000,86.603 145.000,89.489 140.000,86.603 135.000,89.489 130.000,86.603 125.000,89.489 125.000,95.263">
<desc>P56</desc>
</polygon>
<polygon fill="darkseagreen" stroke="white" stroke-width="1"
         points="240.000,98.150 240.000,103.923 245.000,106.810 245.000,106.810 250.000,103.923 250.000,98.150 245.000,95.263 245.000,89.489 240.000,86.603 240.000,80.829 245.000,77.942 245.000,72.169 250.000,69.282 250.000,63.509 245.000,60.622 240.000,63.509 240.000,69.282 235.000,72.169 235.000,77.942 230.000,80.829 225.000,77.942 220.000,80.829 220.000,86.603 225.000,89.489 230.000,86.603 235.000,89.489 235.000,95.263">
<desc>Y16</desc>
</polygon>
<polygon fill="olive" stroke="white" stroke-width="1"
         points="260.000,98.150 260.000,103.923 265.000,106.810 265.000,106.810 270.000,103.923 275.000,106.810 280.000,103.923 280.000,98.150 285.000,95.263 290.000,98.150 290.000,103.923 295.000,106.810 300.000,103.923 305.000,106.810 310.000,103.923 310.000,98.150 305.000,95.263 300.000,98.150 295.000,95.263 295.000,89.489 290.000,86.603 285.000,89.489 280.000,86.603 275.000,89.489 275.000,95.263 270.000,98.150 265.000,95.263">
<desc>U06</desc>
</polygon>
<polygon fill="blue" stroke="white" stroke-width="1"
         points="175.000,89.489 175.000,95.263 180.000,98.150 180.000,98.150 185.000,95.263 185.000,89.489 190.000,86.603 195.000,89.489 200.000,86.603 205.000,89.489 210.000,86.603 210.000,80.829 205.000,77.942 205.000,72.169 200.000,69.282 200.000,63.509 195.000,60.622 190.000,63.509 190.000,69.282 195.000,72.169 195.000,77.942 190.000,80.829 185.000,77.942 180.000,80.829 180.000,86.603">
<desc>P46</desc>
</polygon>
<polygon fill="blueviolet" stroke="white" stroke-width="1"
         points="265.000,89.489 265.000,95.263 270.000,98.150 270.000,98.150 275.000,95.263 275.000,89.489 280.000,86.603 280.000,80.829 275.000,77.942 275.000,72.169 280.000,69.282 285.000,72.169 290.000,69.282 290.000,63.509 285.000,60.622 280.000,63.509 275.000,60.622 270.000,63.509 270.000,69.282 265.000,72.169 260.000,69.282 255.000,72.169 255.000,77.942 260.000,80.829 265.000,77.942 270.000,80.829 270.000,86.603">
<desc>R06</desc>
</polygon>
<polygon fill="maroon" stroke="white" stroke-width="1"
         points="315.000,89.489 315.000,95.263 320.000,98.150 320.000,98.150 325.000,95.263 325.000,89.489 320.000,86.603 320.000,80.829 315.000,77.942 310.000,80.829 305.000,77.942 300.000,80.829 295.000,77.942 290.000,80.829 285.000,77.942 285.000,72.169 280.000,69.282 275.000,72.169 275.000,77.942 280.000,80.829 280.000,86.603 285.000,89.489 290.000,86.603 295.000,89.489 300.000,86.603 305.000,89.489 310.000,86.603">
<desc>S16</desc>
</polygon>
<polygon fill="plum" stroke="white" stroke-width="1"
         points="120.000,80.829 120.000,86.603 125.000,89.489 125.000,89.489 130.000,86.603 135.000,89.489 140.000,86.603 145.000,89.489 150.000,86.603 150.000,80.829 155.000,77.942 160.000,80.829 165.000,77.942 165.000,72.169 160.000,69.282 155.000,72.169 150.000,69.282 145.000,72.169 145.000,77.942 140.000,80.829 135.000,77.942 135.000,72.169 130.000,69.282 125.000,72.169 125.000,77.942">
<desc>P76</desc>
</polygon>
<polygon fill="indigo" stroke="white" stroke-width="1"
         points="150.000,80.829 150.000,86.603 155.000,89.489 155.000,89.489 160.000,86.603 165.000,89.489 170.000,86.603 170.000,80.829 175.000,77.942 175.000,72.169 180.000,69.282 180.000,63.509 175.000,60.622 175.000,54.848 180.000,51.962 180.000,46.188 175.000,43.301 170.000,46.188 170.000,51.962 165.000,54.848 165.000,60.622 170.000,63.509 170.000,69.282 165.000,72.169 165.000,77.942 160.000,80.829 155.000,77.942">
<desc>P36</desc>
</polygon>
<polygon fill="indigo" stroke="white" stroke-width="1"
         points="170.000,80.829 170.000,86.603 175.000,89.489 175.000,89.489 180.000,86.603 180.000,80.829 185.000,77.942 190.000,80.829 195.000,77.942 195.000,72.169 190.000,69.282 190.000,63.509 195.000,60.622 195.000,54.848 190.000,51.962 185.000,54.848 180.000,51.962 175.000,54.848 175.000,60.622 180.000,63.509 180.000,69.282 175.000,72.169 175.000,77.942">
<desc>X26</desc>
</polygon>
<polygon fill="blue" stroke="white" stroke-width="1"
         points="210.000,80.829 210.000,86.603 215.000,89.489 215.000,89.489 220.000,86.603 220.000,80.829 225.000,77.942 230.000,80.829 235.000,77.942 235.000,72.169 240.000,69.282 240.000,63.509 235.000,60.622 230.000,63.509 230.000,69.282 225.000,72.169 220.000,69.282 220.000,63.509 225.000,60.622 225.000,54.848 220.000,51.962 215.000,54.848 215.000,60.622 210.000,63.509 210.000,69.282 215.000,72.169 215.000,77.942">
<desc>Y06</desc>
</polygon>
<polygon fill="green" stroke="white" stroke-width="1"
         points="250.000,80.829 250.000,86.603 255.000,89.489 255.000,89.489 260.000,86.603 260.000,80.829 255.000,77.942 255.000,72.169 260.000,69.282 265.000,72.169 270.000,69.282 270.000,63.509 265.000,60.622 260.000,63.509 255.000,60.622 255.000,54.848 260.000,51.962 260.000,46.188 255.000,43.301 250.000,46.188 250.000,51.962 245.000,54.848 245.000,60.622 250.000,63.509 250.000,69.282 245.000,72.169 245.000,77.942">
<desc>T06</desc>
</polygon>
<polygon fill="peru" stroke="white" stroke-width="1"
         points="105.000,72.169 105.000,77.942 110.000,80.829 110.000,80.829 115.000,77.942 115.000,72.169 120.000,69.282 125.000,72.169 130.000,69.282 135.000,72.169 135.000,77.942 140.000,80.829 145.000,77.942 145.000,72.169 140.000,69.282 140.000,63.509 135.000,60.622 130.000,63.509 125.000,60.622 125.000,54.848 120.000,51.962 115.000,54.848 115.000,60.622 110.000,63.509 110.000,69.282">
<desc>L36</desc>
</polygon>
<polygon fill="darkorange" stroke="white" stroke-width="1"
         points="205.000,72.169 205.000,77.942 210.000,80.829 210.000,80.829 215.000,77.942 215.000,72.169 210.000,69.282 210.000,63.509 205.000,60.622 205.000,54.848 200.000,51.962 200.000,46.188 205.000,43.301 205.000,37.528 200.000,34.641 195.000,37.528 195.000,43.301 190.000,46.188 185.000,43.301 180.000,46.188 180.000,51.962 185.000,54.848 190.000,51.962 195.000,54.848 195.000,60.622 200.000,63.509 200.000,69.282">
<desc>Y26</desc>
</polygon>
<polygon fill="red" stroke="white" stroke-width="1"
         points="285.000,72.169 285.000,77.942 290.000,80.829 290.000,80.829 295.000,77.942 300.000,80.829 305.000,77.942 310.000,80.829 315.000,77.942 315.000,72.169 310.000,69.282 310.000,63.509 305.000,60.622 305.000,54.848 300.000,51.962 300.000,46.188 295.000,43.301 290.000,46.188 290.000,51.962 295.000,54.848 295.000,60.622 300.000,63.509 300.000,69.282 295.000,72.169 290.000,69.282">
<desc>V16</desc>
</polygon>
<polygon fill="turquoise" stroke="white" stroke-width="1"
         points="140.000,63.509 140.000,69.282 145.000,72.169 145.000,72.169 150.000,69.282 155.000,72.169 160.000,69.282 160.000,63.509 155.000,60.622 150.000,63.509 145.000,60.622 145.000,54.848 140.000,51.962 135.000,54.848 130.000,51.962 130.000,46.188 135.000,43.301 135.000,37.528 130.000,34.641 125.000,37.528 125.000,43.301 120.000,46.188 120.000,51.962 125.000,54.848 125.000,60.622 130.000,63.509 135.000,60.622">
<desc>W06</desc>
</polygon>
<polygon fill="peru" stroke="white" stroke-width="1"
         points="160.000,63.509 160.000,69.282 165.000,72.169 165.000,72.169 170.000,69.282 170.000,63.509 165.000,60.622 165.000,54.848 160.000,51.962 160.000,46.188 165.000,43.301 165.000,37.528 160.000,34.641 155.000,37.528 155.000,43.301 150.000,46.188 145.000,43.301 140.000,46.188 140.000,51.962 145.000,54.848 145.000,60.622 150.000,63.509 155.000,60.622">
<desc>T76</desc>
</polygon>
<polygon fill="green" stroke="white" stroke-width="1"
         points="220.000,63.509 220.000,69.282 225.000,72.169 225.000,72.169 230.000,69.282 230.000,63.509 235.000,60.622 240.000,63.509 245.000,60.622 245.000,54.848 240.000,51.962 235.000,54.848 230.000,51.962 230.000,46.188 235.000,43.301 235.000,37.528 230.000,34.641 225.000,37.528 225.000,43.301 220.000,46.188 215.000,43.301 210.000,46.188 210.000,51.962 215.000,54.848 220.000,51.962 225.000,54.848 225.000,60.622">
<desc>X06</desc>
</polygon>
<polygon fill="teal" stroke="white" stroke-width="1"
         points="290.000,63.509 290.000,69.282 295.000,72.169 295.000,72.169 300.000,69.282 300.000,63.509 295.000,60.622 295.000,54.848 290.000,51.962 290.000,46.188 295.000,43.301 295.000,37.528 290.000,34.641 285.000,37.528 285.000,43.301 280.000,46.188 280.000,51.962 275.000,54.848 270.000,51.962 265.000,54.848 265.000,60.622 270.000,63.509 275.000,60.622 280.000,63.509 285.000,60.622">
<desc>Y66</desc>
</polygon>
<polygon fill="turquoise" stroke="white" stroke-width="1"
         points="205.000,54.848 205.000,60.622 210.000,63.509 210.000,63.509 215.000,60.622 215.000,54.848 210.000,51.962 210.000,46.188 215.000,43.301 220.000,46.188 225.000,43.301 225.000,37.528 230.000,34.641 230.000,28.868 225.000,25.981 225.000,20.207 220.000,17.321 215.000,20.207 215.000,25.981 220.000,28.868 220.000,34.641 215.000,37.528 210.000,34.641 205.000,37.528 205.000,43.301 200.000,46.188 200.000,51.962">
<desc>S06</desc>
</polygon>
<polygon fill="olive" stroke="white" stroke-width="1"
         points="255.000,54.848 255.000,60.622 260.000,63.509 260.000,63.509 265.000,60.622 265.000,54.848 270.000,51.962 275.000,54.848 280.000,51.962 280.000,46.188 285.000,43.301 285.000,37.528 290.000,34.641 290.000,28.868 285.000,25.981 280.000,28.868 280.000,34.641 275.000,37.528 275.000,43.301 270.000,46.188 265.000,43.301 265.000,37.528 260.000,34.641 255.000,37.528 255.000,43.301 260.000,46.188 260.000,51.962">
<desc>Y56</desc>
</polygon>
<polygon fill="magenta" stroke="white" stroke-width="1"
         points="130.000,46.188 130.000,51.962 135.000,54.848 135.000,54.848 140.000,51.962 140.000,46.188 145.000,43.301 150.000,46.188 155.000,43.301 155.000,37.528 150.000,34.641 150.000,28.868 155.000,25.981 155.000,20.207 150.000,17.321 145.000,20.207 145.000,25.981 140.000,28.868 135.000,25.981 130.000,28.868 130.000,34.641 135.000,37.528 135.000,43.301">
<desc>X16</desc>
</polygon>
<polygon fill="peru" stroke="white" stroke-width="1"
         points="160.000,46.188 160.000,51.962 165.000,54.848 165.000,54.848 170.000,51.962 170.000,46.188 175.000,43.301 180.000,46.188 185.000,43.301 190.000,46.188 195.000,43.301 195.000,37.528 200.000,34.641 200.000,28.868 195.000,25.981 190.000,28.868 190.000,34.641 185.000,37.528 180.000,34.641 175.000,37.528 170.000,34.641 170.000,28.868 165.000,25.981 160.000,28.868 160.000,34.641 165.000,37.528 165.000,43.301">
<desc>Y46</desc>
</polygon>
<polygon fill="lime" stroke="white" stroke-width="1"
         points="230.000,46.188 230.000,51.962 235.000,54.848 235.000,54.848 240.000,51.962 245.000,54.848 250.000,51.962 250.000,46.188 255.000,43.301 255.000,37.528 260.000,34.641 265.000,37.528 270.000,34.641 270.000,28.868 275.000,25.981 275.000,20.207 270.000,17.321 265.000,20.207 265.000,25.981 260.000,28.868 255.000,25.981 250.000,28.868 250.000,34.641 245.000,37.528 245.000,43.301 240.000,46.188 235.000,43.301">
<desc>W36</desc>
</polygon>
<polygon fill="indigo" stroke="white" stroke-width="1"
         points="235.000,37.528 235.000,43.301 240.000,46.188 240.000,46.188 245.000,43.301 245.000,37.528 250.000,34.641 250.000,28.868 255.000,25.981 260.000,28.868 265.000,25.981 265.000,20.207 260.000,17.321 255.000,20.207 250.000,17.321 250.000,11.547 245.000,8.660 240.000,11.547 235.000,8.660 230.000,11.547 230.000,17.321 235.000,20.207 240.000,17.321 245.000,20.207 245.000,25.981 240.000,28.868 240.000,34.641">
<desc>T26</desc>
</polygon>
<polygon fill="blueviolet" stroke="white" stroke-width="1"
         points="265.000,37.528 265.000,43.301 270.000,46.188 270.000,46.188 275.000,43.301 275.000,37.528 280.000,34.641 280.000,28.868 285.000,25.981 285.000,20.207 280.000,17.321 280.000,11.547 275.000,8.660 270.000,11.547 265.000,8.660 260.000,11.547 255.000,8.660 250.000,11.547 250.000,17.321 255.000,20.207 260.000,17.321 265.000,20.207 270.000,17.321 275.000,20.207 275.000,25.981 270.000,28.868 270.000,34.641">
<desc>V06</desc>
</polygon>
<polygon fill="red" stroke="white" stroke-width="1"
         points="150.000,28.868 150.000,34.641 155.000,37.528 155.000,37.528 160.000,34.641 160.000,28.868 165.000,25.981 170.000,28.868 175.000,25.981 175.000,20.207 170.000,17.321 165.000,20.207 160.000,17.321 160.000,11.547 155.000,8.660 150.000,11.547 145.000,8.660 140.000,11.547 140.000,17.321 135.000,20.207 135.000,25.981 140.000,28.868 145.000,25.981 145.000,20.207 150.000,17.321 155.000,20.207 155.000,25.981">
<desc>R16</desc>
</polygon>
<polygon fill="plum" stroke="white" stroke-width="1"
         points="170.000,28.868 170.000,34.641 175.000,37.528 175.000,37.528 180.000,34.641 185.000,37.528 190.000,34.641 190.000,28.868 195.000,25.981 195.000,20.207 190.000,17.321 185.000,20.207 180.000,17.321 180.000,11.547 175.000,8.660 170.000,11.547 165.000,8.660 160.000,11.547 160.000,17.321 165.000,20.207 170.000,17.321 175.000,20.207 175.000,25.981">
<desc>T66</desc>
</polygon>
<polygon fill="navy" stroke="white" stroke-width="1"
         points="200.000,28.868 200.000,34.641 205.000,37.528 205.000,37.528 210.000,34.641 215.000,37.528 220.000,34.641 220.000,28.868 215.000,25.981 210.000,28.868 205.000,25.981 205.000,20.207 210.000,17.321 210.000,11.547 205.000,8.660 200.000,11.547 195.000,8.660 190.000,11.547 185.000,8.660 180.000,11.547 180.000,17.321 185.000,20.207 190.000,17.321 195.000,20.207 195.000,25.981">
<desc>U26</desc>
</polygon>
<polygon fill="teal" stroke="white" stroke-width="1"
         points="230.000,28.868 230.000,34.641 235.000,37.528 235.000,37.528 240.000,34.641 240.000,28.868 245.000,25.981 245.000,20.207 240.000,17.321 235.000,20.207 230.000,17.321 230.000,11.547 225.000,8.660 220.000,11.547 215.000,8.660 210.000,11.547 210.000,17.321 205.000,20.207 205.000,25.981 210.000,28.868 215.000,25.981 215.000,20.207 220.000,17.321 225.000,20.207 225.000,25.981">
<desc>Q26</desc>
</polygon>
</g>
</svg>
