<?xml version="1.0" encoding="UTF-8" standalone="no"?>
<!-- Created by Polyform Puzzler (http://puzzler.sourceforge.net/) -->
<svg
   xmlns:dc="http://purl.org/dc/elements/1.1/"
   xmlns:cc="http://web.resource.org/cc/"
   xmlns:rdf="http://www.w3.org/1999/02/22-rdf-syntax-ns#"
   xmlns:svg="http://www.w3.org/2000/svg"
   xmlns="http://www.w3.org/2000/svg"
   xmlns:sodipodi="http://sodipodi.sourceforge.net/DTD/sodipodi-0.dtd"
   xmlns:inkscape="http://www.inkscape.org/namespaces/inkscape"
   width="130.0"
   height="86.6025403784"
   viewBox="0 0 130.0 86.6025403784"
   id="svg2268"
   sodipodi:version="0.32"
   inkscape:version="0.45.1"
   sodipodi:docname="hexiamonds-tenyo.svg"
   sodipodi:docbase="/home/david/projects/puzzler/puzzler/docs/images"
   inkscape:output_extension="org.inkscape.output.svg.inkscape"
   inkscape:export-filename="/home/david/projects/puzzler/puzzler/docs/images/hexiamonds-tenyo.png"
   inkscape:export-xdpi="180.00002"
   inkscape:export-ydpi="180.00002">
  <metadata
     id="metadata2323">
    <rdf:RDF>
      <cc:Work
         rdf:about="">
        <dc:format>image/svg+xml</dc:format>
        <dc:type
           rdf:resource="http://purl.org/dc/dcmitype/StillImage" />
      </cc:Work>
    </rdf:RDF>
  </metadata>
  <defs
     id="defs2321" />
  <sodipodi:namedview
     inkscape:window-height="624"
     inkscape:window-width="872"
     inkscape:pageshadow="2"
     inkscape:pageopacity="0.0"
     guidetolerance="10.0"
     gridtolerance="10.0"
     objecttolerance="10.0"
     borderopacity="1.0"
     bordercolor="#666666"
     pagecolor="#ffffff"
     id="base"
     inkscape:zoom="4.6996313"
     inkscape:cx="65"
     inkscape:cy="43.30127"
     inkscape:window-x="312"
     inkscape:window-y="145"
     inkscape:current-layer="svg2268" />
  <g
     id="g2270"
     transform="matrix(0,1,-1,0,105.801,-19.199)">
    <polygon
       points="45,69.282 50,77.942 60,77.942 65,69.282 60,60.622 50,60.622 45,69.282 "
       id="polygon2272"
       style="fill:#008000;stroke:#ffffff;stroke-width:1;stroke-linejoin:round">
      <desc
         id="desc2274">O6</desc>
    </polygon>
    <polygon
       points="60,77.942 80,77.942 90,60.622 80,60.622 75,69.282 65,69.282 60,77.942 "
       id="polygon2276"
       style="fill:#8a2be2;stroke:#ffffff;stroke-width:1;stroke-linejoin:round">
      <desc
         id="desc2278">C6</desc>
    </polygon>
    <polygon
       points="40,60.622 45,69.282 50,60.622 60,60.622 55,51.962 60,43.301 50,43.301 40,60.622 "
       id="polygon2280"
       style="fill:#ff8c00;stroke:#ffffff;stroke-width:1;stroke-linejoin:round">
      <desc
         id="desc2282">E6</desc>
    </polygon>
    <polygon
       points="60,60.622 65,69.282 70,60.622 65,51.962 75,51.962 70,43.301 60,43.301 55,51.962 60,60.622 "
       id="polygon2284"
       style="fill:#800000;stroke:#ffffff;stroke-width:1;stroke-linejoin:round">
      <desc
         id="desc2286">G6</desc>
    </polygon>
    <polygon
       points="65,69.282 75,69.282 80,60.622 90,60.622 85,51.962 65,51.962 70,60.622 65,69.282 "
       id="polygon2288"
       style="fill:#40e0d0;stroke:#ffffff;stroke-width:1;stroke-linejoin:round">
      <desc
         id="desc2290">H6</desc>
    </polygon>
    <polygon
       points="35,51.962 40,60.622 55,34.641 35,34.641 40,43.301 35,51.962 "
       id="polygon2292"
       style="fill:#ff00ff;stroke:#ffffff;stroke-width:1;stroke-linejoin:round">
      <desc
         id="desc2294">P6</desc>
    </polygon>
    <polygon
       points="70,43.301 75,51.962 80,43.301 75,34.641 55,34.641 50,43.301 70,43.301 "
       id="polygon2296"
       style="fill:#00ff00;stroke:#ffffff;stroke-width:1;stroke-linejoin:round">
      <desc
         id="desc2298">J6</desc>
    </polygon>
    <polygon
       points="75,51.962 85,51.962 90,43.301 85,34.641 90,25.981 80,25.981 75,34.641 80,43.301 75,51.962 "
       id="polygon2300"
       style="fill:#000080;stroke:#ffffff;stroke-width:1;stroke-linejoin:round">
      <desc
         id="desc2302">S6</desc>
    </polygon>
    <polygon
       points="35,34.641 55,34.641 50,25.981 60,25.981 55,17.321 45,17.321 35,34.641 "
       id="polygon2304"
       style="fill:#dda0dd;stroke:#ffffff;stroke-width:1;stroke-linejoin:round">
      <desc
         id="desc2306">F6</desc>
    </polygon>
    <polygon
       points="50,25.981 55,34.641 75,34.641 65,17.321 55,17.321 60,25.981 50,25.981 "
       id="polygon2308"
       style="fill:#ffd700;stroke:#ffffff;stroke-width:1;stroke-linejoin:round">
      <desc
         id="desc2310">V6</desc>
    </polygon>
    <polygon
       points="70,25.981 75,34.641 80,25.981 90,25.981 80,8.66 75,17.321 65,17.321 70,25.981 "
       id="polygon2312"
       style="fill:#ff0000;stroke:#ffffff;stroke-width:1;stroke-linejoin:round">
      <desc
         id="desc2314">X6</desc>
    </polygon>
    <polygon
       points="45,17.321 75,17.321 80,8.66 50,8.66 45,17.321 "
       id="polygon2316"
       style="fill:#0000ff;stroke:#ffffff;stroke-width:1;stroke-linejoin:round">
      <desc
         id="desc2318">I6</desc>
    </polygon>
  </g>
</svg>
