<?xml version="1.0" standalone="no"?>
<!-- Created by Polyform Puzzler (http://puzzler.sourceforge.net/) -->
<svg width="101" height="73" viewBox="0 0 101 73"
     xmlns="http://www.w3.org/2000/svg"
     xmlns:xlink="http://www.w3.org/1999/xlink">
<defs>
<symbol id="cubeL">
<polygon fill="blueviolet" stroke="white"
         stroke-width="0.5" stroke-linejoin="round"
         points="0,13 9,15 15,12 15,2 6,0 0,3" />
<polygon fill="black" fill-opacity="0.25" stroke="white"
         stroke-width="0.5" stroke-linejoin="round"
         points="9,15 15,12 15,2 9,5" />
<polygon fill="white" fill-opacity="0.30" stroke="white"
         stroke-width="0.5" stroke-linejoin="round"
         points="0,3 9,5 15,2 6,0" />
</symbol>
<symbol id="cubeT">
<polygon fill="green" stroke="white"
         stroke-width="0.5" stroke-linejoin="round"
         points="0,13 9,15 15,12 15,2 6,0 0,3" />
<polygon fill="black" fill-opacity="0.25" stroke="white"
         stroke-width="0.5" stroke-linejoin="round"
         points="9,15 15,12 15,2 9,5" />
<polygon fill="white" fill-opacity="0.30" stroke="white"
         stroke-width="0.5" stroke-linejoin="round"
         points="0,3 9,5 15,2 6,0" />
</symbol>
<symbol id="cubeV">
<polygon fill="blue" stroke="white"
         stroke-width="0.5" stroke-linejoin="round"
         points="0,13 9,15 15,12 15,2 6,0 0,3" />
<polygon fill="black" fill-opacity="0.25" stroke="white"
         stroke-width="0.5" stroke-linejoin="round"
         points="9,15 15,12 15,2 9,5" />
<polygon fill="white" fill-opacity="0.30" stroke="white"
         stroke-width="0.5" stroke-linejoin="round"
         points="0,3 9,5 15,2 6,0" />
</symbol>
<symbol id="cubeZ">
<polygon fill="lime" stroke="white"
         stroke-width="0.5" stroke-linejoin="round"
         points="0,13 9,15 15,12 15,2 6,0 0,3" />
<polygon fill="black" fill-opacity="0.25" stroke="white"
         stroke-width="0.5" stroke-linejoin="round"
         points="9,15 15,12 15,2 9,5" />
<polygon fill="white" fill-opacity="0.30" stroke="white"
         stroke-width="0.5" stroke-linejoin="round"
         points="0,3 9,5 15,2 6,0" />
</symbol>
<symbol id="cubea">
<polygon fill="gold" stroke="white"
         stroke-width="0.5" stroke-linejoin="round"
         points="0,13 9,15 15,12 15,2 6,0 0,3" />
<polygon fill="black" fill-opacity="0.25" stroke="white"
         stroke-width="0.5" stroke-linejoin="round"
         points="9,15 15,12 15,2 9,5" />
<polygon fill="white" fill-opacity="0.30" stroke="white"
         stroke-width="0.5" stroke-linejoin="round"
         points="0,3 9,5 15,2 6,0" />
</symbol>
<symbol id="cubeb">
<polygon fill="navy" stroke="white"
         stroke-width="0.5" stroke-linejoin="round"
         points="0,13 9,15 15,12 15,2 6,0 0,3" />
<polygon fill="black" fill-opacity="0.25" stroke="white"
         stroke-width="0.5" stroke-linejoin="round"
         points="9,15 15,12 15,2 9,5" />
<polygon fill="white" fill-opacity="0.30" stroke="white"
         stroke-width="0.5" stroke-linejoin="round"
         points="0,3 9,5 15,2 6,0" />
</symbol>
<symbol id="cubep">
<polygon fill="red" stroke="white"
         stroke-width="0.5" stroke-linejoin="round"
         points="0,13 9,15 15,12 15,2 6,0 0,3" />
<polygon fill="black" fill-opacity="0.25" stroke="white"
         stroke-width="0.5" stroke-linejoin="round"
         points="9,15 15,12 15,2 9,5" />
<polygon fill="white" fill-opacity="0.30" stroke="white"
         stroke-width="0.5" stroke-linejoin="round"
         points="0,3 9,5 15,2 6,0" />
</symbol>
</defs>
<g>
<use xlink:href="#cubeL" x="58.000" y="38.000" />
<use xlink:href="#cubeL" x="67.000" y="40.000" />
<use xlink:href="#cubeL" x="76.000" y="42.000" />
<use xlink:href="#cubeb" x="58.000" y="28.000" />
<use xlink:href="#cubeV" x="67.000" y="30.000" />
<use xlink:href="#cubeV" x="76.000" y="32.000" />
<use xlink:href="#cubeZ" x="58.000" y="18.000" />
<use xlink:href="#cubeZ" x="67.000" y="20.000" />
<use xlink:href="#cubeV" x="76.000" y="22.000" />
<use xlink:href="#cubep" x="34.000" y="37.000" />
<use xlink:href="#cubeb" x="43.000" y="39.000" />
<use xlink:href="#cubeL" x="52.000" y="41.000" />
<use xlink:href="#cubea" x="34.000" y="27.000" />
<use xlink:href="#cubeb" x="43.000" y="29.000" />
<use xlink:href="#cubeb" x="52.000" y="31.000" />
<use xlink:href="#cubea" x="34.000" y="17.000" />
<use xlink:href="#cubeZ" x="43.000" y="19.000" />
<use xlink:href="#cubeZ" x="52.000" y="21.000" />
<use xlink:href="#cubeT" x="10.000" y="36.000" />
<use xlink:href="#cubep" x="19.000" y="38.000" />
<use xlink:href="#cubep" x="28.000" y="40.000" />
<use xlink:href="#cubeT" x="10.000" y="26.000" />
<use xlink:href="#cubeT" x="19.000" y="28.000" />
<use xlink:href="#cubep" x="28.000" y="30.000" />
<use xlink:href="#cubeT" x="10.000" y="16.000" />
<use xlink:href="#cubea" x="19.000" y="18.000" />
<use xlink:href="#cubea" x="28.000" y="20.000" />
</g>

</svg>
